<svg width="1435" height="4628" viewBox="0 0 1435 4628" fill="none" xmlns="http://www.w3.org/2000/svg">
<path d="M265.529 648.924L577.368 1062.55C638.279 1143.34 591.528 1259.93 491.673 1276.25L15.9652 1354.03C-83.8899 1370.36 -165.338 1274.73 -133.33 1178.74L30.5391 687.344C64.8107 584.573 200.311 562.419 265.529 648.924Z" stroke="#919CB5" stroke-opacity="0.2"/>
<path d="M1440.08 505.911L1359.74 792.263C1326.31 911.423 1181.06 956.389 1086.15 876.959L898.768 720.134C803.86 640.704 822.533 489.802 933.939 435.902L1201.66 306.375C1333.91 242.392 1479.76 364.459 1440.08 505.911Z" stroke="#919CB5" stroke-opacity="0.2"/>
<path d="M358.529 4066.92L670.368 4480.55C731.279 4561.34 684.528 4677.93 584.673 4694.25L108.965 4772.03C9.11009 4788.36 -72.3382 4692.73 -40.3298 4596.74L123.539 4105.34C157.811 4002.57 293.311 3980.42 358.529 4066.92Z" stroke="#919CB5" stroke-opacity="0.2"/>
<path d="M1266.21 2082.92L954.374 2496.55C893.462 2577.34 940.214 2693.93 1040.07 2710.25L1515.78 2788.03C1615.63 2804.36 1697.08 2708.73 1665.07 2612.74L1501.2 2121.34C1466.93 2018.57 1331.43 1996.42 1266.21 2082.92Z" stroke="#919CB5" stroke-opacity="0.2"/>
<path d="M-176.003 1792.81L-1001.8 3070.6C-1054.42 3152.03 -1006.22 3260.7 -910.535 3276.35L291.094 3472.81C386.776 3488.45 467.078 3400.79 443.127 3306.85L67.292 1832.59C38.2954 1718.84 -112.291 1694.22 -176.003 1792.81Z" stroke="#919CB5" stroke-opacity="0.2"/>
<line x1="-107.247" y1="383.565" x2="718.753" y2="-86.4346" stroke="#919CB5" stroke-opacity="0.2"/>
<circle cx="1261" cy="2127" r="840.5" stroke="#919CB5" stroke-opacity="0.2"/>
</svg>
